#!OML:ASF E:\pregnant2\Project 1\Capture day 1\Session 1\pregnant2.ASF
:FULLY-SPECIFIED
:DEGREES
1993
root 6.71887 16.6636 23.3215 -331.98 -0.568188 -1.03967
lowerback -15.6659 -0.542267 0.509926
upperback -15.2752 -0.7431 1.10217
thorax -7.70598 -0.36673 0.832929
lowerneck -12.027 -1.41773 -4.28342
upperneck 47.4414 1.05015 -4.03955
head 21.2178 -0.970466 -1.15351
rclavicle 6.70898e-015 -5.1684e-015
rhumerus -54.5325 2.5665 -77.9694
rradius 33.6052
rwrist 12.1697
rhand -14.4955 -11.5125
rfingers 7.12502
rthumb 11.6513 -41.1686
lclavicle 6.70898e-015 -5.1684e-015
lhumerus -46.2534 5.74962 82.6275
lradius 36.2759
lwrist -3.83639
lhand -12.3657 25.3819
lfingers 7.12502
lthumb 13.7045 54.9107
rfemur -55.5026 11.2139 16.8162
rtibia 33.1171
rfoot -5.21413 -10.9592
rtoes 5.72498
lfemur -32.9234 -2.89752 -23.7367
ltibia 50.1339
lfoot -14.6152 4.77832
ltoes -32.5296
1994
root 6.69329 16.6807 23.4349 -332.096 -0.357148 -1.17755
lowerback -15.5581 -0.525742 0.521948
upperback -15.239 -0.718736 1.10152
thorax -7.7216 -0.35407 0.828049
lowerneck -12.0384 -1.48131 -4.36111
upperneck 47.4162 0.905365 -3.8867
head 21.1965 -1.01842 -1.08577
rclavicle 8.27441e-015 -1.23246e-014
rhumerus -53.9934 2.41552 -78.0517
rradius 33.2525
rwrist 12.205
rhand -14.7231 -11.6936
rfingers 7.12502
rthumb 11.4318 -41.3619
lclavicle 8.27441e-015 -1.23246e-014
lhumerus -46.4275 5.93384 82.3456
lradius 35.4919
lwrist -3.9493
lhand -11.9399 25.6032
lfingers 7.12502
lthumb 14.1149 55.1037
rfemur -54.8921 11.2582 17.2259
rtibia 33.1321
rfoot -5.56588 -11.0576
rtoes 6.55631
lfemur -33.8966 -2.377 -23.4704
ltibia 52.2624
lfoot -12.6196 3.41875
ltoes -31.1438
1995
root 6.6695 16.6955 23.5466 -332.231 -0.112291 -1.30627
lowerback -15.5363 -0.498356 0.582477
upperback -15.0714 -0.68694 1.08371
thorax -7.53896 -0.343427 0.775334
lowerneck -12.1784 -1.53136 -4.34033
upperneck 47.2671 0.788861 -3.8033
head 21.1214 -1.04419 -1.06258
rclavicle 4.89507e-015 7.65321e-015
rhumerus -53.2313 2.27384 -78.1974
rradius 32.9089
rwrist 12.1192
rhand -15.1691 -11.7848
rfingers 7.12502
rthumb 11.0017 -41.4765
lclavicle 4.89507e-015 7.65321e-015
lhumerus -46.3358 6.22752 82.0165
lradius 34.6188
lwrist -4.33011
lhand -11.5449 25.399
lfingers 7.12502
lthumb 14.4955 54.8726
rfemur -54.2381 11.3199 17.5867
rtibia 33.1452
rfoot -6.07823 -11.1821
rtoes 6.44082
lfemur -34.9481 -1.91031 -23.216
ltibia 54.3688
lfoot -10.3121 2.20843
ltoes -30.114
1996
root 6.64865 16.7121 23.6604 -332.392 0.100538 -1.45079
lowerback -15.3167 -0.458207 0.714487
upperback -15.033 -0.642603 1.05046
thorax -7.61379 -0.333953 0.6714
lowerneck -12.2332 -1.56991 -4.3124
upperneck 47.2315 0.673145 -3.69582
head 21.1064 -1.06737 -1.03267
rclavicle 4.52235e-015 4.07509e-015
rhumerus -52.7337 2.20464 -78.3357
rradius 32.8028
rwrist 12.1591
rhand -14.708 -12.3125
rfingers 7.12502
rthumb 11.4464 -41.9801
lclavicle 4.52235e-015 4.07509e-015
lhumerus -46.5994 6.18939 81.8101
lradius 34.0351
lwrist -4.47833
lhand -11.1699 25.2492
lfingers 7.12502
lthumb 14.8569 54.6966
rfemur -53.6222 11.463 17.8762
rtibia 33.2023
rfoot -6.65389 -11.3403
rtoes 6.93794
lfemur -35.9998 -1.47016 -22.9615
ltibia 56.4006
lfoot -7.78707 1.11421
ltoes -28.8544
1997
root 6.63025 16.7201 23.7689 -332.491 0.370267 -1.63268
lowerback -15.2457 -0.414551 0.889242
upperback -14.9705 -0.59792 1.03713
thorax -7.58178 -0.326887 0.562922
lowerneck -12.2436 -1.60916 -4.33091
upperneck 47.1521 0.558442 -3.56626
head 21.0445 -1.09434 -0.979629
rclavicle 3.54085e-015 -1.09332e-015
rhumerus -52.1829 2.18065 -78.5332
rradius 32.6673
rwrist 12.1291
rhand -14.7277 -12.6337
rfingers 7.12502
rthumb 11.4274 -42.3023
lclavicle 3.54085e-015 -1.09332e-015
lhumerus -46.6568 6.40273 81.4918
lradius 33.2686
lwrist -4.96506
lhand -10.578 25.2612
lfingers 7.12502
lthumb 15.427 54.6655
rfemur -53.0661 11.2798 18.4457
rtibia 33.3045
rfoot -7.11098 -11.1994
rtoes 6.74456
lfemur -37.1631 -1.12551 -22.6423
ltibia 58.3809
lfoot -5.18251 0.147288
ltoes -26.8803
1998
root 6.61258 16.7182 23.8729 -332.511 0.556643 -1.79002
lowerback -15.2545 -0.351936 1.01083
upperback -14.9008 -0.525202 1.01507
thorax -7.49804 -0.301158 0.476318
lowerneck -12.2841 -1.6646 -4.39763
upperneck 47.0447 0.427482 -3.41956
head 20.9723 -1.13391 -0.911652
rclavicle 5.65915e-015 -4.82053e-015
rhumerus -51.5684 2.27428 -78.8469
rradius 32.4746
rwrist 11.884
rhand -15.1691 -12.6505
rfingers 7.12502
rthumb 11.0017 -42.3422
lclavicle 5.65915e-015 -4.82053e-015
lhumerus -46.6238 6.62295 81.1504
lradius 32.4856
lwrist -5.64674
lhand -9.9751 24.9855
lfingers 7.12502
lthumb 16.0076 54.3442
rfemur -52.6535 11.0868 18.9587
rtibia 33.4365
rfoot -7.57421 -10.9392
rtoes 6.32589
lfemur -38.4527 -0.792897 -22.3962
ltibia 60.2986
lfoot -2.67478 -0.725409
ltoes -24.9902
1999
root 6.59603 16.7212 23.9813 -332.565 0.74323 -1.95547
lowerback -15.2534 -0.289577 1.14588
upperback -14.8498 -0.453561 0.999985
thorax -7.4414 -0.276738 0.389999
lowerneck -12.2734 -1.69865 -4.4106
upperneck 46.9781 0.337805 -3.32938
head 20.9161 -1.15551 -0.876044
rclavicle 2.20527e-015 4.62174e-015
rhumerus -51.0177 2.42637 -79.1744
rradius 32.3469
rwrist 11.6551
rhand -15.4813 -12.5882
rfingers 7.12502
rthumb 10.7005 -42.2957
lclavicle 2.20527e-015 4.62174e-015
lhumerus -46.7339 6.74054 80.8862
lradius 31.9016
lwrist -6.03532
lhand -9.47467 24.9271
lfingers 7.12502
lthumb 16.4895 54.2463
rfemur -52.1835 10.9493 19.4456
rtibia 33.5653
rfoot -8.07812 -10.7637
rtoes 6.90485
lfemur -39.6144 -0.528169 -22.1619
ltibia 62.1129
lfoot -1.1371 -0.805962
ltoes -23.9038
2000
root 6.58005 16.724 24.0856 -332.59 0.876276 -2.10567
lowerback -15.2516 -0.221006 1.24135
upperback -14.8037 -0.370354 0.98496
thorax -7.38997 -0.242859 0.326965
lowerneck -12.3008 -1.73928 -4.46624
upperneck 46.9639 0.234553 -3.19244
head 20.912 -1.18506 -0.814042
rclavicle -8.2185e-015 6.33626e-015
rhumerus -50.434 2.6433 -79.5239
rradius 32.2083
rwrist 11.5539
rhand -15.7261 -12.5496
rfingers 7.12502
rthumb 10.4644 -42.2691
lclavicle -8.2185e-015 6.33626e-015
lhumerus -46.7791 6.96941 80.5699
lradius 31.3116
lwrist -6.58094
lhand -8.94621 24.8103
lfingers 7.12502
lthumb 16.9982 54.0866
rfemur -51.7482 10.8219 19.9111
rtibia 33.6601
rfoot -8.45313 -10.6191
rtoes 5.93886
lfemur -40.7755 -0.262492 -22.0157
ltibia 63.837
lfoot -0.704621 0.570694
ltoes -24.3075
2001
root 6.56791 16.7298 24.1886 -332.599 1.00854 -2.28314
lowerback -15.2707 -0.132418 1.41476
upperback -14.7558 -0.268629 0.964704
thorax -7.3259 -0.206918 0.216367
lowerneck -12.3065 -1.77689 -4.49681
upperneck 46.924 0.146513 -3.10034
head 20.8824 -1.20955 -0.77562
rclavicle -2.24642e-015 -3.28616e-015
rhumerus -49.8299 2.90581 -79.9069
rradius 32.1422
rwrist 11.4709
rhand -15.9201 -12.6971
rfingers 7.12502
rthumb 10.2772 -42.426
lclavicle -2.24642e-015 -3.28616e-015
lhumerus -46.8376 7.08273 80.3185
lradius 30.8075
lwrist -7.04802
lhand -8.37506 24.7781
lfingers 7.12502
lthumb 17.5479 54.0061
rfemur -51.3314 10.6476 20.3854
rtibia 33.7027
rfoot -8.93907 -10.3809
rtoes 6.02774
lfemur -41.9173 -0.00255509 -21.8967
ltibia 65.4274
lfoot -1.18446 2.09797
ltoes -23.4631
2002
root 6.55814 16.7326 24.29 -332.595 1.10417 -2.432
lowerback -15.2654 -0.0415875 1.57998
upperback -14.7547 -0.162956 0.929584
thorax -7.32858 -0.169545 0.0955262
lowerneck -12.244 -1.78971 -4.48082
upperneck 46.9461 0.0980547 -3.04656
head 20.8781 -1.21614 -0.759262
rclavicle 7.11432e-015 -1.44119e-015
rhumerus -49.2354 3.22331 -80.3226
rradius 32.0343
rwrist 11.3688
rhand -15.9074 -12.8456
rfingers 7.12502
rthumb 10.2895 -42.5739
lclavicle 7.11432e-015 -1.44119e-015
lhumerus -46.9926 7.23574 80.0194
lradius 30.3843
lwrist -7.52447
lhand -7.84252 24.7321
lfingers 7.12502
lthumb 18.0604 53.9136
rfemur -50.9029 10.435 20.8702
rtibia 33.7111
rfoot -9.23125 -10.1592
rtoes 5.36707
lfemur -43.0666 0.206042 -21.8486
ltibia 66.8747
lfoot -1.76069 3.85164
ltoes -22.3487
2003
root 6.54866 16.7404 24.392 -332.594 1.12058 -2.54014
lowerback -15.3058 0.0640978 1.66314
upperback -14.7371 -0.0318422 0.885951
thorax -7.28609 -0.112069 0.0133434
lowerneck -12.178 -1.82667 -4.50303
upperneck 46.9679 0.0190953 -2.98485
head 20.8733 -1.24038 -0.737896
rclavicle 8.3707e-015 -1.41634e-015
rhumerus -48.6561 3.54482 -80.7046
rradius 31.95
rwrist 11.5018
rhand -15.9078 -12.912
rfingers 7.12502
rthumb 10.2891 -42.6404
lclavicle 8.3707e-015 -1.41634e-015
lhumerus -47.1404 7.3842 79.7341
lradius 29.9992
lwrist -8.01181
lhand -7.39739 24.575
lfingers 7.12502
lthumb 18.4886 53.7164
rfemur -50.4981 10.3724 21.1891
rtibia 33.7317
rfoot -9.57911 -10.0497
rtoes 5.22312
lfemur -44.1828 0.353056 -21.8846
ltibia 68.1238
lfoot -2.13526 5.8711
ltoes -21.9233
